<svg width="5770" height="2138" viewBox="0 0 5770 2138" fill="none" xmlns="http://www.w3.org/2000/svg">
<mask id="path-1-outside-1_2384_64" maskUnits="userSpaceOnUse" x="2041" y="429" width="3161" height="1502" fill="black">
<rect fill="white" x="2041" y="429" width="3161" height="1502"/>
<path d="M3097 917C3097 991.667 3079 1061.67 3043 1127C3008.33 1192.33 2953 1245 2877 1285C2802.33 1325 2707.67 1345 2593 1345H2359V1881H2079V485H2593C2701 485 2793 503.667 2869 541C2945 578.333 3001.67 629.667 3039 695C3077.67 760.333 3097 834.333 3097 917ZM2581 1119C2658.33 1119 2715.67 1101.67 2753 1067C2790.33 1031 2809 981 2809 917C2809 781 2733 713 2581 713H2359V1119H2581ZM3575.8 485V1881H3295.8V485H3575.8ZM3784.44 1181C3784.44 1043.67 3815.1 921 3876.44 813C3939.1 703.667 4023.77 619 4130.44 559C4238.44 497.667 4359.1 467 4492.44 467C4648.44 467 4785.1 507 4902.44 587C5019.77 667 5101.77 777.667 5148.44 919H4826.44C4794.44 852.333 4749.1 802.333 4690.44 769C4633.1 735.667 4566.44 719 4490.44 719C4409.1 719 4336.44 738.333 4272.44 777C4209.77 814.333 4160.44 867.667 4124.44 937C4089.77 1006.33 4072.44 1087.67 4072.44 1181C4072.44 1273 4089.77 1354.33 4124.44 1425C4160.44 1494.33 4209.77 1548.33 4272.44 1587C4336.44 1624.33 4409.1 1643 4490.44 1643C4566.44 1643 4633.1 1626.33 4690.44 1593C4749.1 1558.33 4794.44 1507.67 4826.44 1441H5148.44C5101.77 1583.67 5019.77 1695 4902.44 1775C4786.44 1853.67 4649.77 1893 4492.44 1893C4359.1 1893 4238.44 1863 4130.44 1803C4023.77 1741.67 3939.1 1657 3876.44 1549C3815.1 1441 3784.44 1318.33 3784.44 1181Z"/>
</mask>
<path d="M3097 917C3097 991.667 3079 1061.67 3043 1127C3008.33 1192.33 2953 1245 2877 1285C2802.33 1325 2707.67 1345 2593 1345H2359V1881H2079V485H2593C2701 485 2793 503.667 2869 541C2945 578.333 3001.67 629.667 3039 695C3077.67 760.333 3097 834.333 3097 917ZM2581 1119C2658.33 1119 2715.67 1101.67 2753 1067C2790.33 1031 2809 981 2809 917C2809 781 2733 713 2581 713H2359V1119H2581ZM3575.8 485V1881H3295.8V485H3575.8ZM3784.44 1181C3784.44 1043.67 3815.1 921 3876.44 813C3939.1 703.667 4023.77 619 4130.44 559C4238.44 497.667 4359.1 467 4492.44 467C4648.44 467 4785.1 507 4902.44 587C5019.77 667 5101.77 777.667 5148.44 919H4826.44C4794.44 852.333 4749.1 802.333 4690.44 769C4633.1 735.667 4566.44 719 4490.44 719C4409.1 719 4336.44 738.333 4272.44 777C4209.77 814.333 4160.44 867.667 4124.44 937C4089.77 1006.33 4072.44 1087.67 4072.44 1181C4072.44 1273 4089.77 1354.33 4124.44 1425C4160.44 1494.33 4209.77 1548.33 4272.44 1587C4336.44 1624.33 4409.1 1643 4490.44 1643C4566.44 1643 4633.1 1626.33 4690.44 1593C4749.1 1558.33 4794.44 1507.67 4826.44 1441H5148.44C5101.77 1583.67 5019.77 1695 4902.44 1775C4786.44 1853.67 4649.77 1893 4492.44 1893C4359.1 1893 4238.44 1863 4130.44 1803C4023.77 1741.67 3939.1 1657 3876.44 1549C3815.1 1441 3784.44 1318.33 3784.44 1181Z" fill="#52AEB9"/>
<path d="M3043 1127L3009.72 1108.66L3009.57 1108.92L3009.43 1109.19L3043 1127ZM2877 1285L2859.3 1251.37L2859.18 1251.44L2859.06 1251.5L2877 1285ZM2359 1345V1307H2321V1345H2359ZM2359 1881V1919H2397V1881H2359ZM2079 1881H2041V1919H2079V1881ZM2079 485V447H2041V485H2079ZM2869 541L2852.25 575.107L2869 541ZM3039 695L3006.01 713.853L3006.15 714.105L3006.3 714.354L3039 695ZM2753 1067L2778.86 1094.85L2779.12 1094.6L2779.38 1094.35L2753 1067ZM2359 713V675H2321V713H2359ZM2359 1119H2321V1157H2359V1119ZM3097 917H3059C3059 985.26 3042.62 1048.95 3009.72 1108.66L3043 1127L3076.28 1145.34C3115.38 1074.38 3135 998.073 3135 917H3097ZM3043 1127L3009.43 1109.19C2978.9 1166.74 2929.66 1214.34 2859.3 1251.37L2877 1285L2894.7 1318.63C2976.34 1275.66 3037.77 1217.93 3076.57 1144.81L3043 1127ZM2877 1285L2859.06 1251.5C2791.51 1287.69 2703.52 1307 2593 1307V1345V1383C2711.81 1383 2813.15 1362.31 2894.94 1318.5L2877 1285ZM2593 1345V1307H2359V1345V1383H2593V1345ZM2359 1345H2321V1881H2359H2397V1345H2359ZM2359 1881V1843H2079V1881V1919H2359V1881ZM2079 1881H2117V485H2079H2041V1881H2079ZM2079 485V523H2593V485V447H2079V485ZM2593 485V523C2696.74 523 2782.69 540.941 2852.25 575.107L2869 541L2885.75 506.893C2803.31 466.393 2705.26 447 2593 447V485ZM2869 541L2852.25 575.107C2922.32 609.527 2972.9 655.92 3006.01 713.853L3039 695L3071.99 676.147C3030.43 603.413 2967.68 547.139 2885.75 506.893L2869 541ZM3039 695L3006.3 714.354C3041.19 773.312 3059 840.518 3059 917H3097H3135C3135 828.149 3114.14 747.355 3071.7 675.646L3039 695ZM2581 1119V1157C2663.09 1157 2731.61 1138.72 2778.86 1094.85L2753 1067L2727.14 1039.15C2699.72 1064.62 2653.57 1081 2581 1081V1119ZM2753 1067L2779.38 1094.35C2825.81 1049.58 2847 988.742 2847 917H2809H2771C2771 973.258 2754.86 1012.42 2726.62 1039.65L2753 1067ZM2809 917H2847C2847 841.982 2825.84 779.082 2777.34 735.681C2729.64 693 2661.88 675 2581 675V713V751C2652.12 751 2698.36 767 2726.66 792.319C2754.16 816.918 2771 856.018 2771 917H2809ZM2581 713V675H2359V713V751H2581V713ZM2359 713H2321V1119H2359H2397V713H2359ZM2359 1119V1157H2581V1119V1081H2359V1119ZM3575.8 485H3613.8V447H3575.8V485ZM3575.8 1881V1919H3613.8V1881H3575.8ZM3295.8 1881H3257.8V1919H3295.8V1881ZM3295.8 485V447H3257.8V485H3295.8ZM3575.8 485H3537.8V1881H3575.8H3613.8V485H3575.8ZM3575.8 1881V1843H3295.8V1881V1919H3575.8V1881ZM3295.8 1881H3333.8V485H3295.8H3257.8V1881H3295.8ZM3295.8 485V523H3575.8V485V447H3295.8V485ZM3876.44 813L3843.47 794.103L3843.43 794.169L3843.39 794.235L3876.44 813ZM4130.44 559L4149.07 592.12L4149.14 592.082L4149.2 592.043L4130.44 559ZM5148.44 919V957H5201L5184.52 907.085L5148.44 919ZM4826.44 919L4792.18 935.444L4802.53 957H4826.44V919ZM4690.44 769L4671.34 801.851L4671.5 801.946L4671.67 802.039L4690.44 769ZM4272.44 777L4291.89 809.646L4291.99 809.586L4292.09 809.525L4272.44 777ZM4124.44 937L4090.71 919.489L4090.58 919.746L4090.45 920.006L4124.44 937ZM4124.44 1425L4090.32 1441.74L4090.51 1442.13L4090.71 1442.51L4124.44 1425ZM4272.44 1587L4252.48 1619.34L4252.88 1619.59L4253.29 1619.82L4272.44 1587ZM4690.44 1593L4709.54 1625.85L4709.65 1625.78L4709.77 1625.72L4690.44 1593ZM4826.44 1441V1403H4802.53L4792.18 1424.56L4826.44 1441ZM5148.44 1441L5184.55 1452.81L5200.85 1403H5148.44V1441ZM4902.44 1775L4923.77 1806.45L4923.81 1806.42L4923.84 1806.4L4902.44 1775ZM4130.44 1803L4111.5 1835.94L4111.74 1836.08L4111.98 1836.22L4130.44 1803ZM3876.44 1549L3843.39 1567.77L3843.48 1567.92L3843.57 1568.07L3876.44 1549ZM3784.44 1181H3822.44C3822.44 1049.53 3851.73 933.456 3909.48 831.765L3876.44 813L3843.39 794.235C3778.48 908.544 3746.44 1037.8 3746.44 1181H3784.44ZM3876.44 813L3909.41 831.896C3968.77 728.326 4048.56 648.656 4149.07 592.12L4130.44 559L4111.81 525.88C3998.98 589.344 3909.44 679.008 3843.47 794.103L3876.44 813ZM4130.44 559L4149.2 592.043C4251.06 534.197 4365.18 505 4492.44 505V467V429C4353.03 429 4225.81 461.136 4111.67 525.957L4130.44 559ZM4492.44 467V505C4641.59 505 4770.63 543.121 4881.03 618.397L4902.44 587L4923.84 555.603C4799.58 470.879 4655.29 429 4492.44 429V467ZM4902.44 587L4881.03 618.397C4991.12 693.455 5068.17 797.103 5112.35 930.914L5148.44 919L5184.52 907.085C5135.37 758.231 5048.43 640.545 4923.84 555.603L4902.44 587ZM5148.44 919V881H4826.44V919V957H5148.44V919ZM4826.44 919L4860.7 902.556C4825.68 829.61 4775.25 773.486 4709.21 735.961L4690.44 769L4671.67 802.039C4722.95 831.181 4763.19 875.056 4792.18 935.444L4826.44 919ZM4690.44 769L4709.54 736.149C4645.6 698.976 4572.15 681 4490.44 681V719V757C4560.72 757 4620.61 772.357 4671.34 801.851L4690.44 769ZM4490.44 719V681C4402.81 681 4323.23 701.915 4252.79 744.475L4272.44 777L4292.09 809.525C4349.64 774.752 4415.4 757 4490.44 757V719ZM4272.44 777L4252.99 744.354C4183.81 785.565 4129.73 844.345 4090.71 919.489L4124.44 937L4158.16 954.511C4191.15 890.988 4235.73 843.102 4291.89 809.646L4272.44 777ZM4124.44 937L4090.45 920.006C4052.66 995.586 4034.44 1082.96 4034.44 1181H4072.44H4110.44C4110.44 1092.38 4126.88 1017.08 4158.43 953.994L4124.44 937ZM4072.44 1181H4034.44C4034.44 1277.83 4052.7 1365.05 4090.32 1441.74L4124.44 1425L4158.55 1408.26C4126.84 1343.62 4110.44 1268.17 4110.44 1181H4072.44ZM4124.44 1425L4090.71 1442.51C4129.68 1517.55 4183.61 1576.84 4252.48 1619.34L4272.44 1587L4292.39 1554.66C4235.93 1519.82 4191.2 1471.11 4158.16 1407.49L4124.44 1425ZM4272.44 1587L4253.29 1619.82C4323.66 1660.87 4403.05 1681 4490.44 1681V1643V1605C4415.16 1605 4349.22 1587.79 4291.58 1554.18L4272.44 1587ZM4490.44 1643V1681C4572.15 1681 4645.6 1663.02 4709.54 1625.85L4690.44 1593L4671.34 1560.15C4620.61 1589.64 4560.72 1605 4490.44 1605V1643ZM4690.44 1593L4709.77 1625.72C4775.47 1586.89 4825.73 1530.29 4860.7 1457.44L4826.44 1441L4792.18 1424.56C4763.14 1485.05 4722.74 1529.77 4671.11 1560.28L4690.44 1593ZM4826.44 1441V1479H5148.44V1441V1403H4826.44V1441ZM5148.44 1441L5112.32 1429.19C5068.1 1564.37 4991.02 1668.61 4881.03 1743.6L4902.44 1775L4923.84 1806.4C5048.52 1721.39 5135.44 1602.97 5184.55 1452.81L5148.44 1441ZM4902.44 1775L4881.11 1743.55C4772.16 1817.44 4643.13 1855 4492.44 1855V1893V1931C4656.41 1931 4800.72 1889.9 4923.77 1806.45L4902.44 1775ZM4492.44 1893V1855C4365.04 1855 4250.8 1826.4 4148.89 1769.78L4130.44 1803L4111.98 1836.22C4226.07 1899.6 4353.17 1931 4492.44 1931V1893ZM4130.44 1803L4149.38 1770.06C4048.58 1712.1 3968.68 1632.25 3909.31 1529.93L3876.44 1549L3843.57 1568.07C3909.53 1681.75 3998.96 1771.24 4111.5 1835.94L4130.44 1803ZM3876.44 1549L3909.48 1530.23C3851.73 1428.54 3822.44 1312.47 3822.44 1181H3784.44H3746.44C3746.44 1324.2 3778.48 1453.46 3843.39 1567.77L3876.44 1549Z" fill="white" mask="url(#path-1-outside-1_2384_64)"/>
<path d="M27.8568 1471.01C64.8261 1111.52 1442.66 -110.912 1655.88 92.9994C1869.1 296.911 1655.83 1889.29 1424.44 2072.32C1193.04 2255.35 -9.11246 1830.5 27.8568 1471.01Z" fill="#FFE200"/>
<ellipse cx="1040.63" cy="1678.9" rx="156" ry="170.5" fill="white"/>
<ellipse cx="1040.63" cy="1001.2" rx="156" ry="401.797" fill="white"/>
</svg>
