<svg width="6055" height="2138" viewBox="0 0 6055 2138" fill="none" xmlns="http://www.w3.org/2000/svg">
<mask id="path-1-outside-1_2400_4" maskUnits="userSpaceOnUse" x="1898" y="808" width="4114" height="984" fill="black">
<rect fill="white" x="1898" y="808" width="4114" height="984"/>
<path d="M2249 867.292C2340.37 867.292 2420.53 885.151 2489.48 920.87C2559.25 956.589 2612.83 1007.67 2650.21 1074.13C2688.42 1139.75 2707.53 1216.17 2707.53 1303.39C2707.53 1390.61 2688.42 1467.03 2650.21 1532.66C2612.83 1597.45 2559.25 1647.7 2489.48 1683.42C2420.53 1719.14 2340.37 1737 2249 1737H1944.97V867.292H2249ZM2242.77 1588.73C2334.14 1588.73 2404.75 1563.81 2454.59 1513.97C2504.43 1464.13 2529.35 1393.93 2529.35 1303.39C2529.35 1212.85 2504.43 1142.24 2454.59 1091.57C2404.75 1040.07 2334.14 1014.32 2242.77 1014.32H2119.41V1588.73H2242.77ZM2912.86 1008.09V1226.14H3205.67V1364.45H2912.86V1594.96H3243.05V1737H2738.42V866.046H3243.05V1008.09H2912.86ZM3602.18 1745.72C3541.54 1745.72 3486.72 1735.34 3437.71 1714.57C3389.53 1693.81 3351.32 1663.9 3323.08 1624.86C3294.84 1585.82 3280.3 1539.72 3279.47 1486.55H3466.37C3468.86 1522.27 3481.32 1550.52 3503.75 1571.28C3527.01 1592.05 3558.57 1602.43 3598.45 1602.43C3639.15 1602.43 3671.13 1592.88 3694.39 1573.77C3717.65 1553.84 3729.28 1528.09 3729.28 1496.52C3729.28 1470.77 3721.38 1449.59 3705.6 1432.98C3689.82 1416.36 3669.88 1403.49 3645.79 1394.35C3622.53 1384.38 3590.14 1373.58 3548.61 1361.95C3492.12 1345.34 3446.02 1329.14 3410.3 1313.36C3375.41 1296.75 3345.09 1272.24 3319.34 1239.85C3294.42 1206.62 3281.96 1162.59 3281.96 1107.77C3281.96 1056.27 3294.84 1011.41 3320.59 973.202C3346.34 934.991 3382.47 905.918 3428.99 885.982C3475.51 865.215 3528.67 854.832 3588.48 854.832C3678.19 854.832 3750.87 876.845 3806.53 920.87C3863.01 964.065 3894.16 1024.7 3899.98 1102.79H3708.09C3706.43 1072.88 3693.56 1048.38 3669.47 1029.27C3646.21 1009.34 3615.06 999.368 3576.02 999.368C3541.96 999.368 3514.55 1008.09 3493.78 1025.53C3473.85 1042.98 3463.88 1068.31 3463.88 1101.54C3463.88 1124.8 3471.35 1144.32 3486.31 1160.1C3502.09 1175.05 3521.19 1187.51 3543.62 1197.48C3566.88 1206.62 3599.28 1217.42 3640.81 1229.88C3697.29 1246.49 3743.4 1263.1 3779.12 1279.72C3814.83 1296.33 3845.57 1321.25 3871.32 1354.48C3897.07 1387.7 3909.95 1431.31 3909.95 1485.31C3909.95 1531.83 3897.9 1575.02 3873.81 1614.89C3849.72 1654.76 3814.42 1686.74 3767.9 1710.83C3721.38 1734.09 3666.14 1745.72 3602.18 1745.72ZM5124.02 867.292L4881.05 1737H4675.46L4512.23 1117.74L4341.53 1737L4137.18 1738.25L3902.94 867.292H4089.84L4243.09 1542.62L4420.03 867.292H4614.4L4781.37 1538.89L4935.87 867.292H5124.02ZM5743.79 1128.95C5723.86 1092.4 5696.45 1064.58 5661.56 1045.47C5626.67 1026.36 5585.97 1016.81 5539.45 1016.81C5487.95 1016.81 5442.26 1028.44 5402.39 1051.7C5362.52 1074.96 5331.37 1108.19 5308.94 1151.38C5286.51 1194.57 5275.3 1244.41 5275.3 1300.9C5275.3 1359.05 5286.51 1409.72 5308.94 1452.91C5332.2 1496.11 5364.18 1529.33 5404.88 1552.59C5445.59 1575.85 5492.93 1587.48 5546.93 1587.48C5613.38 1587.48 5667.79 1570.04 5710.15 1535.15C5752.52 1499.43 5780.34 1450 5793.63 1386.87H5494.59V1253.55H5965.58V1405.56C5953.95 1466.2 5929.03 1522.27 5890.82 1573.77C5852.61 1625.28 5803.19 1666.81 5742.55 1698.37C5682.74 1729.11 5615.46 1744.48 5540.7 1744.48C5456.8 1744.48 5380.79 1725.79 5312.68 1688.41C5245.39 1650.2 5192.23 1597.45 5153.19 1530.16C5114.98 1462.88 5095.87 1386.46 5095.87 1300.9C5095.87 1215.34 5114.98 1138.92 5153.19 1071.64C5192.23 1003.52 5245.39 950.774 5312.68 913.394C5380.79 875.183 5456.38 856.078 5539.45 856.078C5637.47 856.078 5722.61 880.167 5794.88 928.346C5867.15 975.694 5916.99 1042.56 5944.4 1128.95H5743.79Z"/>
</mask>
<path d="M2249 867.292C2340.37 867.292 2420.53 885.151 2489.48 920.87C2559.25 956.589 2612.83 1007.67 2650.21 1074.13C2688.42 1139.75 2707.53 1216.17 2707.53 1303.39C2707.53 1390.61 2688.42 1467.03 2650.21 1532.66C2612.83 1597.45 2559.25 1647.7 2489.48 1683.42C2420.53 1719.14 2340.37 1737 2249 1737H1944.97V867.292H2249ZM2242.77 1588.73C2334.14 1588.73 2404.75 1563.81 2454.59 1513.97C2504.43 1464.13 2529.35 1393.93 2529.35 1303.39C2529.35 1212.85 2504.43 1142.24 2454.59 1091.57C2404.75 1040.07 2334.14 1014.32 2242.77 1014.32H2119.41V1588.73H2242.77ZM2912.86 1008.09V1226.14H3205.67V1364.45H2912.86V1594.96H3243.05V1737H2738.42V866.046H3243.05V1008.09H2912.86ZM3602.18 1745.72C3541.54 1745.72 3486.72 1735.34 3437.71 1714.57C3389.53 1693.81 3351.32 1663.9 3323.08 1624.86C3294.84 1585.82 3280.3 1539.72 3279.47 1486.55H3466.37C3468.86 1522.27 3481.32 1550.52 3503.75 1571.28C3527.01 1592.05 3558.57 1602.43 3598.45 1602.43C3639.15 1602.43 3671.13 1592.88 3694.39 1573.77C3717.65 1553.84 3729.28 1528.09 3729.28 1496.52C3729.28 1470.77 3721.38 1449.59 3705.6 1432.98C3689.82 1416.36 3669.88 1403.49 3645.79 1394.35C3622.53 1384.38 3590.14 1373.58 3548.61 1361.95C3492.12 1345.34 3446.02 1329.14 3410.3 1313.36C3375.41 1296.75 3345.09 1272.24 3319.34 1239.85C3294.42 1206.62 3281.96 1162.59 3281.96 1107.77C3281.96 1056.27 3294.84 1011.41 3320.59 973.202C3346.34 934.991 3382.47 905.918 3428.99 885.982C3475.51 865.215 3528.67 854.832 3588.48 854.832C3678.19 854.832 3750.87 876.845 3806.53 920.87C3863.01 964.065 3894.16 1024.7 3899.98 1102.79H3708.09C3706.43 1072.88 3693.56 1048.38 3669.47 1029.27C3646.21 1009.34 3615.06 999.368 3576.02 999.368C3541.96 999.368 3514.55 1008.09 3493.78 1025.53C3473.85 1042.98 3463.88 1068.31 3463.88 1101.54C3463.88 1124.8 3471.35 1144.32 3486.31 1160.1C3502.09 1175.05 3521.19 1187.51 3543.62 1197.48C3566.88 1206.62 3599.28 1217.42 3640.81 1229.88C3697.29 1246.49 3743.4 1263.1 3779.12 1279.72C3814.83 1296.33 3845.57 1321.25 3871.32 1354.48C3897.07 1387.7 3909.95 1431.31 3909.95 1485.31C3909.95 1531.83 3897.9 1575.02 3873.81 1614.89C3849.72 1654.76 3814.42 1686.74 3767.9 1710.83C3721.38 1734.09 3666.14 1745.72 3602.18 1745.72ZM5124.02 867.292L4881.05 1737H4675.46L4512.23 1117.74L4341.53 1737L4137.18 1738.25L3902.94 867.292H4089.84L4243.09 1542.62L4420.03 867.292H4614.4L4781.37 1538.89L4935.87 867.292H5124.02ZM5743.79 1128.95C5723.86 1092.4 5696.45 1064.58 5661.56 1045.47C5626.67 1026.36 5585.97 1016.81 5539.45 1016.81C5487.95 1016.81 5442.26 1028.44 5402.39 1051.7C5362.52 1074.96 5331.37 1108.19 5308.94 1151.38C5286.51 1194.57 5275.3 1244.41 5275.3 1300.9C5275.3 1359.05 5286.51 1409.72 5308.94 1452.91C5332.2 1496.11 5364.18 1529.33 5404.88 1552.59C5445.59 1575.85 5492.93 1587.48 5546.93 1587.48C5613.38 1587.48 5667.79 1570.04 5710.15 1535.15C5752.52 1499.43 5780.34 1450 5793.63 1386.87H5494.59V1253.55H5965.58V1405.56C5953.95 1466.2 5929.03 1522.27 5890.82 1573.77C5852.61 1625.28 5803.19 1666.81 5742.55 1698.37C5682.74 1729.11 5615.46 1744.48 5540.7 1744.48C5456.8 1744.48 5380.79 1725.79 5312.68 1688.41C5245.39 1650.2 5192.23 1597.45 5153.19 1530.16C5114.98 1462.88 5095.87 1386.46 5095.87 1300.9C5095.87 1215.34 5114.98 1138.92 5153.19 1071.64C5192.23 1003.52 5245.39 950.774 5312.68 913.394C5380.79 875.183 5456.38 856.078 5539.45 856.078C5637.47 856.078 5722.61 880.167 5794.88 928.346C5867.15 975.694 5916.99 1042.56 5944.4 1128.95H5743.79Z" fill="#52AEB9"/>
<path d="M2489.48 920.87L2468.32 961.714L2468.42 961.766L2468.52 961.817L2489.48 920.87ZM2650.21 1074.13L2610.12 1096.68L2610.29 1096.98L2610.46 1097.27L2650.21 1074.13ZM2650.21 1532.66L2610.46 1509.51L2610.41 1509.59L2610.37 1509.67L2650.21 1532.66ZM2489.48 1683.42L2468.52 1642.48L2468.42 1642.53L2468.32 1642.58L2489.48 1683.42ZM1944.97 1737H1898.97V1783H1944.97V1737ZM1944.97 867.292V821.292H1898.97V867.292H1944.97ZM2454.59 1513.97L2422.06 1481.44L2422.06 1481.44L2454.59 1513.97ZM2454.59 1091.57L2421.53 1123.56L2421.66 1123.7L2421.79 1123.83L2454.59 1091.57ZM2119.41 1014.32V968.32H2073.41V1014.32H2119.41ZM2119.41 1588.73H2073.41V1634.73H2119.41V1588.73ZM2249 867.292V913.292C2334.31 913.292 2406.97 929.934 2468.32 961.714L2489.48 920.87L2510.64 880.026C2434.09 840.368 2346.44 821.292 2249 821.292V867.292ZM2489.48 920.87L2468.52 961.817C2530.48 993.539 2577.3 1038.34 2610.12 1096.68L2650.21 1074.13L2690.3 1051.58C2648.36 977.013 2588.02 919.638 2510.44 879.923L2489.48 920.87ZM2650.21 1074.13L2610.46 1097.27C2644 1154.88 2661.53 1223.08 2661.53 1303.39H2707.53H2753.53C2753.53 1209.27 2732.84 1124.62 2689.96 1050.98L2650.21 1074.13ZM2707.53 1303.39H2661.53C2661.53 1383.71 2644 1451.9 2610.46 1509.51L2650.21 1532.66L2689.96 1555.8C2732.84 1482.16 2753.53 1397.52 2753.53 1303.39H2707.53ZM2650.21 1532.66L2610.37 1509.67C2577.64 1566.4 2530.8 1610.59 2468.52 1642.48L2489.48 1683.42L2510.44 1724.37C2587.71 1684.81 2648.02 1628.5 2690.05 1555.64L2650.21 1532.66ZM2489.48 1683.42L2468.32 1642.58C2406.97 1674.36 2334.31 1691 2249 1691V1737V1783C2346.44 1783 2434.09 1763.92 2510.64 1724.27L2489.48 1683.42ZM2249 1737V1691H1944.97V1737V1783H2249V1737ZM1944.97 1737H1990.97V867.292H1944.97H1898.97V1737H1944.97ZM1944.97 867.292V913.292H2249V867.292V821.292H1944.97V867.292ZM2242.77 1588.73V1634.73C2342.57 1634.73 2426.3 1607.3 2487.11 1546.49L2454.59 1513.97L2422.06 1481.44C2383.19 1520.31 2325.71 1542.73 2242.77 1542.73V1588.73ZM2454.59 1513.97L2487.11 1546.49C2547.85 1485.76 2575.35 1402.5 2575.35 1303.39H2529.35H2483.35C2483.35 1385.37 2461.01 1442.49 2422.06 1481.44L2454.59 1513.97ZM2529.35 1303.39H2575.35C2575.35 1204.24 2547.84 1120.78 2487.38 1059.31L2454.59 1091.57L2421.79 1123.83C2461.02 1163.71 2483.35 1221.46 2483.35 1303.39H2529.35ZM2454.59 1091.57L2487.64 1059.58C2426.91 996.825 2342.99 968.32 2242.77 968.32V1014.32V1060.32C2325.29 1060.32 2382.59 1083.32 2421.53 1123.56L2454.59 1091.57ZM2242.77 1014.32V968.32H2119.41V1014.32V1060.32H2242.77V1014.32ZM2119.41 1014.32H2073.41V1588.73H2119.41H2165.41V1014.32H2119.41ZM2119.41 1588.73V1634.73H2242.77V1588.73V1542.73H2119.41V1588.73ZM2912.86 1008.09V962.09H2866.86V1008.09H2912.86ZM2912.86 1226.14H2866.86V1272.14H2912.86V1226.14ZM3205.67 1226.14H3251.67V1180.14H3205.67V1226.14ZM3205.67 1364.45V1410.45H3251.67V1364.45H3205.67ZM2912.86 1364.45V1318.45H2866.86V1364.45H2912.86ZM2912.86 1594.96H2866.86V1640.96H2912.86V1594.96ZM3243.05 1594.96H3289.05V1548.96H3243.05V1594.96ZM3243.05 1737V1783H3289.05V1737H3243.05ZM2738.42 1737H2692.42V1783H2738.42V1737ZM2738.42 866.046V820.046H2692.42V866.046H2738.42ZM3243.05 866.046H3289.05V820.046H3243.05V866.046ZM3243.05 1008.09V1054.09H3289.05V1008.09H3243.05ZM2912.86 1008.09H2866.86V1226.14H2912.86H2958.86V1008.09H2912.86ZM2912.86 1226.14V1272.14H3205.67V1226.14V1180.14H2912.86V1226.14ZM3205.67 1226.14H3159.67V1364.45H3205.67H3251.67V1226.14H3205.67ZM3205.67 1364.45V1318.45H2912.86V1364.45V1410.45H3205.67V1364.45ZM2912.86 1364.45H2866.86V1594.96H2912.86H2958.86V1364.45H2912.86ZM2912.86 1594.96V1640.96H3243.05V1594.96V1548.96H2912.86V1594.96ZM3243.05 1594.96H3197.05V1737H3243.05H3289.05V1594.96H3243.05ZM3243.05 1737V1691H2738.42V1737V1783H3243.05V1737ZM2738.42 1737H2784.42V866.046H2738.42H2692.42V1737H2738.42ZM2738.42 866.046V912.046H3243.05V866.046V820.046H2738.42V866.046ZM3243.05 866.046H3197.05V1008.09H3243.05H3289.05V866.046H3243.05ZM3243.05 1008.09V962.09H2912.86V1008.09V1054.09H3243.05V1008.09ZM3437.71 1714.57L3419.5 1756.81L3419.63 1756.87L3419.76 1756.93L3437.71 1714.57ZM3323.08 1624.86L3285.81 1651.82L3285.81 1651.82L3323.08 1624.86ZM3279.47 1486.55V1440.55H3232.74L3233.47 1487.27L3279.47 1486.55ZM3466.37 1486.55L3512.26 1483.35L3509.27 1440.55H3466.37V1486.55ZM3503.75 1571.28L3472.5 1605.03L3472.8 1605.32L3473.11 1605.6L3503.75 1571.28ZM3694.39 1573.77L3723.59 1609.32L3723.96 1609.01L3724.32 1608.7L3694.39 1573.77ZM3705.6 1432.98L3672.25 1464.66L3672.25 1464.66L3705.6 1432.98ZM3645.79 1394.35L3627.67 1436.63L3628.57 1437.01L3629.48 1437.36L3645.79 1394.35ZM3548.61 1361.95L3535.63 1406.08L3535.91 1406.17L3536.2 1406.25L3548.61 1361.95ZM3410.3 1313.36L3390.52 1354.89L3391.11 1355.17L3391.71 1355.44L3410.3 1313.36ZM3319.34 1239.85L3282.54 1267.45L3282.93 1267.96L3283.33 1268.47L3319.34 1239.85ZM3320.59 973.202L3358.73 998.909L3358.73 998.909L3320.59 973.202ZM3428.99 885.982L3447.11 928.263L3447.43 928.127L3447.74 927.986L3428.99 885.982ZM3806.53 920.87L3777.99 956.947L3778.28 957.181L3778.58 957.41L3806.53 920.87ZM3899.98 1102.79V1148.79H3949.53L3945.85 1099.37L3899.98 1102.79ZM3708.09 1102.79L3662.16 1105.34L3664.58 1148.79H3708.09V1102.79ZM3669.47 1029.27L3639.53 1064.2L3640.2 1064.77L3640.88 1065.31L3669.47 1029.27ZM3493.78 1025.53L3464.19 990.312L3463.84 990.61L3463.49 990.915L3493.78 1025.53ZM3486.31 1160.1L3452.91 1191.74L3453.77 1192.64L3454.67 1193.5L3486.31 1160.1ZM3543.62 1197.48L3524.94 1239.52L3525.86 1239.93L3526.8 1240.3L3543.62 1197.48ZM3640.81 1229.88L3627.59 1273.94L3627.71 1273.97L3627.83 1274.01L3640.81 1229.88ZM3871.32 1354.48L3834.96 1382.66L3834.96 1382.66L3871.32 1354.48ZM3873.81 1614.89L3834.44 1591.1L3834.44 1591.1L3873.81 1614.89ZM3767.9 1710.83L3788.47 1751.98L3788.76 1751.83L3789.05 1751.68L3767.9 1710.83ZM3602.18 1745.72V1699.72C3546.86 1699.72 3498.25 1690.27 3455.66 1672.22L3437.71 1714.57L3419.76 1756.93C3475.19 1780.41 3536.23 1791.72 3602.18 1791.72V1745.72ZM3437.71 1714.57L3455.92 1672.33C3414.66 1654.54 3383.3 1629.63 3360.35 1597.9L3323.08 1624.86L3285.81 1651.82C3319.34 1698.17 3364.41 1733.07 3419.5 1756.81L3437.71 1714.57ZM3323.08 1624.86L3360.35 1597.9C3338.21 1567.29 3326.16 1530.58 3325.46 1485.84L3279.47 1486.55L3233.47 1487.27C3234.44 1548.85 3251.47 1604.35 3285.81 1651.82L3323.08 1624.86ZM3279.47 1486.55V1532.55H3466.37V1486.55V1440.55H3279.47V1486.55ZM3466.37 1486.55L3420.48 1489.76C3423.64 1535.01 3440.03 1574.97 3472.5 1605.03L3503.75 1571.28L3535 1537.53C3522.61 1526.06 3514.08 1509.53 3512.26 1483.35L3466.37 1486.55ZM3503.75 1571.28L3473.11 1605.6C3506.94 1635.8 3550.52 1648.43 3598.45 1648.43V1602.43V1556.43C3566.63 1556.43 3547.07 1548.3 3534.39 1536.97L3503.75 1571.28ZM3598.45 1602.43V1648.43C3646.05 1648.43 3689.6 1637.23 3723.59 1609.32L3694.39 1573.77L3665.19 1538.23C3652.65 1548.53 3632.25 1556.43 3598.45 1556.43V1602.43ZM3694.39 1573.77L3724.32 1608.7C3758.13 1579.72 3775.28 1541.05 3775.28 1496.52H3729.28H3683.28C3683.28 1515.13 3677.16 1527.95 3664.45 1538.85L3694.39 1573.77ZM3729.28 1496.52H3775.28C3775.28 1460.56 3763.88 1427.54 3738.95 1401.29L3705.6 1432.98L3672.25 1464.66C3678.89 1471.64 3683.28 1480.98 3683.28 1496.52H3729.28ZM3705.6 1432.98L3738.95 1401.29C3717.85 1379.08 3691.85 1362.62 3662.11 1351.34L3645.79 1394.35L3629.48 1437.36C3647.92 1444.35 3661.79 1453.64 3672.25 1464.66L3705.6 1432.98ZM3645.79 1394.35L3663.91 1352.07C3637.95 1340.94 3603.34 1329.51 3561.01 1317.66L3548.61 1361.95L3536.2 1406.25C3576.94 1417.66 3607.12 1427.82 3627.67 1436.63L3645.79 1394.35ZM3548.61 1361.95L3561.58 1317.82C3506.16 1301.52 3462.12 1285.97 3428.89 1271.28L3410.3 1313.36L3391.71 1355.44C3429.92 1372.32 3478.08 1389.16 3535.63 1406.08L3548.61 1361.95ZM3410.3 1313.36L3430.08 1271.83C3401.95 1258.44 3377.06 1238.53 3355.35 1211.22L3319.34 1239.85L3283.33 1268.47C3313.12 1305.95 3348.87 1335.06 3390.52 1354.89L3410.3 1313.36ZM3319.34 1239.85L3356.14 1212.25C3338.85 1189.19 3327.96 1155.81 3327.96 1107.77H3281.96H3235.96C3235.96 1169.37 3249.99 1224.05 3282.54 1267.45L3319.34 1239.85ZM3281.96 1107.77H3327.96C3327.96 1064.31 3338.69 1028.65 3358.73 998.909L3320.59 973.202L3282.44 947.495C3250.98 994.179 3235.96 1048.23 3235.96 1107.77H3281.96ZM3320.59 973.202L3358.73 998.909C3379.06 968.748 3407.89 945.07 3447.11 928.263L3428.99 885.982L3410.87 843.701C3357.05 866.766 3313.62 901.234 3282.44 947.495L3320.59 973.202ZM3428.99 885.982L3447.74 927.986C3487.42 910.272 3534.02 900.832 3588.48 900.832V854.832V808.832C3523.32 808.832 3463.59 820.158 3410.24 843.978L3428.99 885.982ZM3588.48 854.832V900.832C3670.62 900.832 3732.4 920.886 3777.99 956.947L3806.53 920.87L3835.07 884.793C3769.34 832.803 3685.76 808.832 3588.48 808.832V854.832ZM3806.53 920.87L3778.58 957.41C3823.51 991.768 3849.15 1039.73 3854.1 1106.2L3899.98 1102.79L3945.85 1099.37C3939.17 1009.68 3902.51 936.361 3834.47 884.329L3806.53 920.87ZM3899.98 1102.79V1056.79H3708.09V1102.79V1148.79H3899.98V1102.79ZM3708.09 1102.79L3754.02 1100.23C3751.61 1056.81 3732.13 1020.26 3698.05 993.231L3669.47 1029.27L3640.88 1065.31C3654.98 1076.5 3661.25 1088.96 3662.16 1105.34L3708.09 1102.79ZM3669.47 1029.27L3699.4 994.346C3665.73 965.481 3622.95 953.368 3576.02 953.368V999.368V1045.37C3607.17 1045.37 3626.69 1053.19 3639.53 1064.2L3669.47 1029.27ZM3576.02 999.368V953.368C3533.98 953.368 3495.19 964.272 3464.19 990.312L3493.78 1025.53L3523.37 1060.76C3533.9 1051.91 3549.94 1045.37 3576.02 1045.37V999.368ZM3493.78 1025.53L3463.49 990.915C3431.13 1019.23 3417.88 1058.69 3417.88 1101.54H3463.88H3509.88C3509.88 1077.94 3516.56 1066.72 3524.07 1060.15L3493.78 1025.53ZM3463.88 1101.54H3417.88C3417.88 1135.67 3429.26 1166.78 3452.91 1191.74L3486.31 1160.1L3519.7 1128.47C3513.44 1121.86 3509.88 1113.93 3509.88 1101.54H3463.88ZM3486.31 1160.1L3454.67 1193.5C3474.7 1212.48 3498.34 1227.7 3524.94 1239.52L3543.62 1197.48L3562.3 1155.45C3544.04 1147.33 3529.47 1137.63 3517.94 1126.71L3486.31 1160.1ZM3543.62 1197.48L3526.8 1240.3C3551.79 1250.12 3585.58 1261.34 3627.59 1273.94L3640.81 1229.88L3654.03 1185.82C3612.97 1173.5 3581.97 1163.12 3560.44 1154.67L3543.62 1197.48ZM3640.81 1229.88L3627.83 1274.01C3683.08 1290.26 3726.82 1306.13 3759.72 1321.43L3779.12 1279.72L3798.51 1238.01C3759.97 1220.08 3711.51 1202.72 3653.79 1185.75L3640.81 1229.88ZM3779.12 1279.72L3759.72 1321.43C3788.34 1334.74 3813.39 1354.83 3834.96 1382.66L3871.32 1354.48L3907.68 1326.3C3877.74 1287.67 3841.33 1257.92 3798.51 1238.01L3779.12 1279.72ZM3871.32 1354.48L3834.96 1382.66C3852.88 1405.77 3863.95 1438.59 3863.95 1485.31H3909.95H3955.95C3955.95 1424.04 3941.26 1369.64 3907.68 1326.3L3871.32 1354.48ZM3909.95 1485.31H3863.95C3863.95 1523.43 3854.2 1558.4 3834.44 1591.1L3873.81 1614.89L3913.18 1638.68C3941.6 1591.64 3955.95 1540.22 3955.95 1485.31H3909.95ZM3873.81 1614.89L3834.44 1591.1C3815.26 1622.84 3786.7 1649.3 3746.75 1669.99L3767.9 1710.83L3789.05 1751.68C3842.14 1724.19 3884.18 1686.68 3913.18 1638.68L3873.81 1614.89ZM3767.9 1710.83L3747.33 1669.69C3708.5 1689.11 3660.62 1699.72 3602.18 1699.72V1745.72V1791.72C3671.67 1791.72 3734.27 1779.08 3788.47 1751.98L3767.9 1710.83ZM5124.02 867.292L5168.32 879.669L5184.63 821.292H5124.02V867.292ZM4881.05 1737V1783H4915.96L4925.35 1749.38L4881.05 1737ZM4675.46 1737L4630.98 1748.72L4640.01 1783H4675.46V1737ZM4512.23 1117.74L4556.71 1106.01L4513.22 941.031L4467.88 1105.51L4512.23 1117.74ZM4341.53 1737L4341.81 1783L4376.62 1782.79L4385.87 1749.22L4341.53 1737ZM4137.18 1738.25L4092.76 1750.19L4101.98 1784.46L4137.46 1784.25L4137.18 1738.25ZM3902.94 867.292V821.292H3842.93L3858.52 879.239L3902.94 867.292ZM4089.84 867.292L4134.7 857.112L4126.57 821.292H4089.84V867.292ZM4243.09 1542.62L4198.24 1552.8L4287.59 1554.28L4243.09 1542.62ZM4420.03 867.292V821.292H4384.53L4375.53 855.634L4420.03 867.292ZM4614.4 867.292L4659.04 856.194L4650.37 821.292H4614.4V867.292ZM4781.37 1538.89L4736.73 1549.98L4826.2 1549.2L4781.37 1538.89ZM4935.87 867.292V821.292H4899.25L4891.04 856.979L4935.87 867.292ZM5124.02 867.292L5079.71 854.915L4836.74 1724.62L4881.05 1737L4925.35 1749.38L5168.32 879.669L5124.02 867.292ZM4881.05 1737V1691H4675.46V1737V1783H4881.05V1737ZM4675.46 1737L4719.94 1725.28L4556.71 1106.01L4512.23 1117.74L4467.75 1129.46L4630.98 1748.72L4675.46 1737ZM4512.23 1117.74L4467.88 1105.51L4297.18 1724.78L4341.53 1737L4385.87 1749.22L4556.58 1129.96L4512.23 1117.74ZM4341.53 1737L4341.25 1691L4136.9 1692.25L4137.18 1738.25L4137.46 1784.25L4341.81 1783L4341.53 1737ZM4137.18 1738.25L4181.61 1726.3L3947.36 855.345L3902.94 867.292L3858.52 879.239L4092.76 1750.19L4137.18 1738.25ZM3902.94 867.292V913.292H4089.84V867.292V821.292H3902.94V867.292ZM4089.84 867.292L4044.98 877.472L4198.24 1552.8L4243.09 1542.62L4287.95 1532.44L4134.7 857.112L4089.84 867.292ZM4243.09 1542.62L4287.59 1554.28L4464.52 878.95L4420.03 867.292L4375.53 855.634L4198.6 1530.97L4243.09 1542.62ZM4420.03 867.292V913.292H4614.4V867.292V821.292H4420.03V867.292ZM4614.4 867.292L4569.76 878.39L4736.73 1549.98L4781.37 1538.89L4826.01 1527.79L4659.04 856.194L4614.4 867.292ZM4781.37 1538.89L4826.2 1549.2L4980.7 877.605L4935.87 867.292L4891.04 856.979L4736.54 1528.57L4781.37 1538.89ZM4935.87 867.292V913.292H5124.02V867.292V821.292H4935.87V867.292ZM5743.79 1128.95L5703.41 1150.98L5716.49 1174.95H5743.79V1128.95ZM5308.94 1151.38L5268.12 1130.18L5308.94 1151.38ZM5308.94 1452.91L5268.12 1474.11L5268.27 1474.42L5268.44 1474.72L5308.94 1452.91ZM5404.88 1552.59L5382.06 1592.53L5382.06 1592.53L5404.88 1552.59ZM5710.15 1535.15L5739.39 1570.66L5739.6 1570.49L5739.8 1570.32L5710.15 1535.15ZM5793.63 1386.87L5838.65 1396.35L5850.33 1340.87H5793.63V1386.87ZM5494.59 1386.87H5448.59V1432.87H5494.59V1386.87ZM5494.59 1253.55V1207.55H5448.59V1253.55H5494.59ZM5965.58 1253.55H6011.58V1207.55H5965.58V1253.55ZM5965.58 1405.56L6010.76 1414.23L6011.58 1409.94V1405.56H5965.58ZM5890.82 1573.77L5853.88 1546.37L5853.88 1546.37L5890.82 1573.77ZM5742.55 1698.37L5763.57 1739.29L5763.68 1739.23L5763.79 1739.18L5742.55 1698.37ZM5312.68 1688.41L5289.96 1728.41L5290.25 1728.57L5290.55 1728.73L5312.68 1688.41ZM5153.19 1530.16L5113.19 1552.88L5113.3 1553.07L5113.4 1553.25L5153.19 1530.16ZM5153.19 1071.64L5113.28 1048.76L5113.24 1048.84L5113.19 1048.92L5153.19 1071.64ZM5312.68 913.394L5335.02 953.605L5335.1 953.559L5335.18 953.513L5312.68 913.394ZM5794.88 928.346L5769.36 966.62L5769.52 966.722L5769.67 966.823L5794.88 928.346ZM5944.4 1128.95V1174.95H6007.26L5988.25 1115.04L5944.4 1128.95ZM5743.79 1128.95L5784.18 1106.92C5760.23 1063.02 5726.64 1028.66 5683.65 1005.12L5661.56 1045.47L5639.46 1085.82C5666.26 1100.49 5687.49 1121.78 5703.41 1150.98L5743.79 1128.95ZM5661.56 1045.47L5683.65 1005.12C5640.93 981.725 5592.38 970.812 5539.45 970.812V1016.81V1062.81C5579.56 1062.81 5612.42 1071 5639.46 1085.82L5661.56 1045.47ZM5539.45 1016.81V970.812C5480.77 970.812 5426.91 984.143 5379.21 1011.97L5402.39 1051.7L5425.57 1091.43C5457.62 1072.74 5495.13 1062.81 5539.45 1062.81V1016.81ZM5402.39 1051.7L5379.21 1011.97C5331.41 1039.85 5294.33 1079.7 5268.12 1130.18L5308.94 1151.38L5349.77 1172.58C5368.41 1136.67 5393.63 1110.06 5425.57 1091.43L5402.39 1051.7ZM5308.94 1151.38L5268.12 1130.18C5241.78 1180.9 5229.3 1238.22 5229.3 1300.9H5275.3H5321.3C5321.3 1250.61 5331.25 1208.24 5349.77 1172.58L5308.94 1151.38ZM5275.3 1300.9H5229.3C5229.3 1365 5241.69 1423.21 5268.12 1474.11L5308.94 1452.91L5349.77 1431.71C5331.34 1396.23 5321.3 1353.1 5321.3 1300.9H5275.3ZM5308.94 1452.91L5268.44 1474.72C5295.58 1525.12 5333.53 1564.8 5382.06 1592.53L5404.88 1552.59L5427.7 1512.65C5394.83 1493.87 5368.82 1467.09 5349.44 1431.1L5308.94 1452.91ZM5404.88 1552.59L5382.06 1592.53C5430.71 1620.33 5486.16 1633.48 5546.93 1633.48V1587.48V1541.48C5499.71 1541.48 5460.46 1531.37 5427.7 1512.65L5404.88 1552.59ZM5546.93 1587.48V1633.48C5621.71 1633.48 5687.16 1613.68 5739.39 1570.66L5710.15 1535.15L5680.91 1499.64C5648.42 1526.4 5605.05 1541.48 5546.93 1541.48V1587.48ZM5710.15 1535.15L5739.8 1570.32C5791.26 1526.94 5823.61 1467.8 5838.65 1396.35L5793.63 1386.87L5748.62 1377.4C5737.08 1432.21 5713.78 1471.92 5680.5 1499.98L5710.15 1535.15ZM5793.63 1386.87V1340.87H5494.59V1386.87V1432.87H5793.63V1386.87ZM5494.59 1386.87H5540.59V1253.55H5494.59H5448.59V1386.87H5494.59ZM5494.59 1253.55V1299.55H5965.58V1253.55V1207.55H5494.59V1253.55ZM5965.58 1253.55H5919.58V1405.56H5965.58H6011.58V1253.55H5965.58ZM5965.58 1405.56L5920.41 1396.9C5910.13 1450.49 5888.14 1500.19 5853.88 1546.37L5890.82 1573.77L5927.76 1601.18C5969.93 1544.35 5997.78 1481.92 6010.76 1414.23L5965.58 1405.56ZM5890.82 1573.77L5853.88 1546.37C5820.09 1591.9 5776.18 1629.01 5721.31 1657.57L5742.55 1698.37L5763.79 1739.18C5830.19 1704.61 5885.13 1658.65 5927.76 1601.18L5890.82 1573.77ZM5742.55 1698.37L5721.52 1657.46C5668.92 1684.49 5608.97 1698.48 5540.7 1698.48V1744.48V1790.48C5621.94 1790.48 5696.56 1773.72 5763.57 1739.29L5742.55 1698.37ZM5540.7 1744.48V1698.48C5463.9 1698.48 5395.61 1681.44 5334.81 1648.08L5312.68 1688.41L5290.55 1728.73C5365.98 1770.13 5449.7 1790.48 5540.7 1790.48V1744.48ZM5312.68 1688.41L5335.39 1648.41C5275.24 1614.24 5227.95 1567.35 5192.98 1507.08L5153.19 1530.16L5113.4 1553.25C5156.51 1627.55 5215.55 1686.15 5289.96 1728.41L5312.68 1688.41ZM5153.19 1530.16L5193.19 1507.45C5159.32 1447.8 5141.87 1379.36 5141.87 1300.9H5095.87H5049.87C5049.87 1393.56 5070.64 1477.96 5113.19 1552.88L5153.19 1530.16ZM5095.87 1300.9H5141.87C5141.87 1222.44 5159.32 1154 5193.19 1094.35L5153.19 1071.64L5113.19 1048.92C5070.64 1123.84 5049.87 1208.24 5049.87 1300.9H5095.87ZM5153.19 1071.64L5193.1 1094.51C5228.06 1033.51 5275.21 986.83 5335.02 953.605L5312.68 913.394L5290.34 873.183C5215.58 914.718 5156.4 973.528 5113.28 1048.76L5153.19 1071.64ZM5312.68 913.394L5335.18 953.513C5395.99 919.404 5463.75 902.078 5539.45 902.078V856.078V810.078C5449.02 810.078 5365.6 830.963 5290.17 873.275L5312.68 913.394ZM5539.45 856.078V902.078C5629.59 902.078 5705.6 924.109 5769.36 966.62L5794.88 928.346L5820.4 890.072C5739.63 836.225 5645.34 810.078 5539.45 810.078V856.078ZM5794.88 928.346L5769.67 966.823C5832.63 1008.07 5876.17 1066.03 5900.55 1142.86L5944.4 1128.95L5988.25 1115.04C5957.8 1019.1 5901.67 943.317 5820.09 889.869L5794.88 928.346ZM5944.4 1128.95V1082.95H5743.79V1128.95V1174.95H5944.4V1128.95Z" fill="white" mask="url(#path-1-outside-1_2400_4)"/>
<path d="M27.8568 1471.01C64.8261 1111.52 1442.66 -110.912 1655.88 92.9994C1869.1 296.911 1655.83 1889.29 1424.44 2072.32C1193.04 2255.35 -9.11247 1830.5 27.8568 1471.01Z" fill="#FFE200"/>
<ellipse cx="1040.63" cy="1678.9" rx="156" ry="170.5" fill="white"/>
<ellipse cx="1040.63" cy="1001.2" rx="156" ry="401.797" fill="white"/>
</svg>
