<svg width="513" height="514" viewBox="0 0 513 514" fill="none" xmlns="http://www.w3.org/2000/svg">
<path d="M17.4035 386.814C8.4487 375.448 3.55637 363.431 5.07064 351.24C6.54357 339.383 14.5033 324.689 26.5871 308.484C38.7847 292.127 55.6077 273.685 75.5744 254.241C115.519 215.343 168.345 172.15 222.716 133.207C277.076 94.2729 333.133 59.4782 379.557 37.4512C402.749 26.4472 423.716 18.5434 440.962 14.9556C457.932 11.4252 472.497 11.8203 481.673 19.0849C490.365 25.9676 496.418 38.2518 500.564 53.6658C504.746 69.2104 507.152 88.5678 508.079 110.339C509.934 153.901 505.889 207.693 497.839 261.219C489.788 314.753 477.703 368.2 463.405 411.076C456.258 432.508 448.525 451.397 440.414 466.37C432.367 481.226 423.699 492.701 414.474 498.742C405.258 504.778 391.702 508.048 375.612 509.308C359.409 510.577 340.139 509.841 319.099 507.468C277.009 502.721 227.42 491.373 180.315 475.974C133.235 460.583 88.4043 441.07 55.9254 419.891C39.6963 409.308 26.3678 398.192 17.4035 386.814Z" fill="#52AEB9" stroke="white" stroke-width="8"/>
<path d="M301.491 360.604C326.369 360.605 346.536 378.853 346.537 401.364C346.537 423.875 326.369 442.124 301.491 442.124C276.612 442.124 256.444 423.875 256.444 401.364C256.444 378.853 276.612 360.604 301.491 360.604Z" fill="white"/>
<path d="M301.491 360.604C326.369 360.605 346.536 378.853 346.537 401.364C346.537 423.875 326.369 442.124 301.491 442.124C276.612 442.124 256.444 423.875 256.444 401.364C256.444 378.853 276.612 360.604 301.491 360.604Z" stroke="white"/>
<path d="M301.491 143.292C326.369 143.292 346.537 186.297 346.537 239.346C346.537 292.395 326.369 335.4 301.491 335.4C276.612 335.4 256.444 292.395 256.444 239.346C256.444 186.297 276.612 143.292 301.491 143.292Z" fill="white"/>
<path d="M301.491 143.292C326.369 143.292 346.537 186.297 346.537 239.346C346.537 292.395 326.369 335.4 301.491 335.4C276.612 335.4 256.444 292.395 256.444 239.346C256.444 186.297 276.612 143.292 301.491 143.292Z" stroke="white"/>
</svg>
